<svg id="Calque_1" data-name="Calque 1" xmlns="http://www.w3.org/2000/svg" viewBox="0 0 250.11 112.27"><defs><style>.cls-1{fill:#fff}</style></defs><path class="cls-1" d="M148.8 28.78 161 9.81H96.13c-21 0-31 18.29-31 18.29l-21.65 36L29.86 86c13.14 0 21.69-2.46 27.76-5.69a32.05 32.05 0 0 0 11.56-11.15l8.56-13h43.47c8.29 0 14.39-7 14.39-7l9.16-12.89h-55l5-7.56zm-5.91 8.54-.62.87H61.65L33.18 85h-1.41l29.08-47.72zM67 29.25l-4.3 7.08h-1.29c-.14 0 4.35-7.33 4.35-7.33s9.16-17 28.55-18.14h64.78l-.62 1H95.06c-1.25-.05-17.96.53-28.06 17.39zm191.46-17.6c-.82-1.07-2.64-1.77-4.88-1.85h-69.07c-11.68 0-17.23 6.56-18.69 8.62-.44.62-6.55 10.26-6.55 10.26h65.49l-5.29 8.55h-50.84A27.27 27.27 0 0 0 146.27 49c-.23.3-13.72 21.52-21.74 34.14l-.93 1.45h78.68c15.47 0 22.07-10.79 22.13-10.89l5.47-9h-66.43l5.43-8.68h51c1 0 2 0 2.95-.13 11.47-1 16.33-6.46 19-10.51.12-.18 16.1-26.65 16.75-27.83 1.07-1.89 1.42-3.96-.12-5.9zM228.2 65.7l-.58.93h-65.35l.58-.94zm-9.86-26.58h-49.71a25.33 25.33 0 0 0-20.82 11c-.26.37-5.86 9.16-20.76 32.6l-.64.94h-1.09C138.59 62.8 146.71 50.05 147 49.58a26.27 26.27 0 0 1 21.59-11.41h50.28zm-33.83-27.43c-10.77 0-15.71 5.81-17.15 7.83-.19.27-5.23 8.21-5.23 8.21H161c2.37-3.74 5.32-8.37 5.6-8.76 1.37-1.93 6.7-8.23 17.92-8.23h69.07a7.07 7.07 0 0 1 3.55.95zM12.52 122c-1.62 0-2.58-.34-2.95-1s0-2.08 1.27-3.93c2.3-3.29 4.83-4.75 8.22-4.75h8.3l-1 1.44h-7.63c-2.49 0-4.34 1.12-6.16 3.72-.65.92-1.36 2-1.09 2.56.17.33.81.5 1.95.5h8.22l-1.1 1.46z" transform="translate(-9.4 -9.8)"/><path class="cls-1" d="m26.38 112.15 2.82-4.08h-9.41l-2.83 4.08h-1.92l6.81-9.73h1.93l-2.94 4.19h9.41l2.94-4.19h1.94l-6.82 9.73h-1.93zm132.83 0 2.82-4.08h-9.41l-2.83 4.08h-1.92l6.81-9.73h1.93l-2.93 4.19h9.41l2.93-4.19h1.94l-6.81 9.73h-1.94z"/><path class="cls-1" d="m55.32 122 .46-2.64h-8.21L44.29 122H41.9l9.7-7.87a6.9 6.9 0 0 1 4.77-2 1.77 1.77 0 0 1 1.42.57 2 2 0 0 1 .36 1.69L57 122zm.68-4.11.57-3.41a1 1 0 0 0-.07-.78.85.85 0 0 0-.65-.2 4.06 4.06 0 0 0-2.51 1.17l-4 3.22zM73.92 122l5.27-7.5-8.69 5.42h-1.29L67.49 114l-5.56 8h-1.88l6.82-9.73h1c.56 0 .94.38 1.12 1.12l1.42 4.84 8.76-5.43a3.11 3.11 0 0 1 2-.53h1.43L75.78 122zm6.28 0 6.8-9.78h8c1.42 0 2.39.37 2.83 1.07a2.14 2.14 0 0 1-.14 2.17c-1.06 2.06-3 3.07-5.91 3.07H84.4L82 122zm12-4.76a4.87 4.87 0 0 0 3.84-1.92 1.17 1.17 0 0 0 .16-1.24c-.16-.31-.61-.47-1.32-.47h-7l-2.54 3.63zm90.14 4.76 6.81-9.73h8c1.42 0 2.39.37 2.82 1.07a2.11 2.11 0 0 1-.13 2.17c-1.07 2.06-3 3.07-5.91 3.07h-7.36l-2.4 3.42zm12-4.76a4.87 4.87 0 0 0 3.84-1.92 1.2 1.2 0 0 0 .17-1.24c-.17-.31-.62-.47-1.33-.47h-7l-2.54 3.63z" transform="translate(-9.4 -9.8)"/><path class="cls-1" d="m88.07 112.15 6.82-9.73h1.84l-6.81 9.73h-1.85zm77.75 0 6.82-9.73h1.84l-6.82 9.73h-1.84z"/><path class="cls-1" d="M111 122.07c-2.89 0-4.39-.42-4.89-1.38s-.09-2 1.1-3.72c2.83-4 6.24-4.87 10.5-4.87 2.48 0 4 .51 4.56 1.52.47.86.21 2.06-.77 3.57-2.95 4.54-6.21 4.88-10.5 4.88m6-8.57c-3.52 0-5.75.58-8.18 3.71-1 1.27-1.35 2.13-1.1 2.63.36.74 2.21.84 4 .84 3.68 0 5.94-.57 8.14-3.71.89-1.26 1.19-2.12.93-2.63-.39-.74-2.12-.84-3.77-.84m18.33 8.5c-2.1 0-2.89-1-3.5-4.55s-.81-3.72-1.88-3.72h-.06l-5.79 8.27h-1.88l6.82-9.73h1c2 0 2.82 1.18 3.32 4.52.55 3.67 1 3.67 2 3.67h.05l5.75-8.19h2l-6.84 9.73zm5.07 0 1-1.45h8.45c2.2 0 3-.25 3.64-1.2.23-.3.3-.55.21-.74s-.66-.51-1.44-.59l-4.72-.51c-.67-.07-1.84-.31-2.2-1.11a1.64 1.64 0 0 1 .33-1.66 5.76 5.76 0 0 1 5.22-2.47h8.66l-1 1.41h-8.1a3.78 3.78 0 0 0-3.1 1.39c-.72 1 .65 1.08 1.32 1.16l4.78.49a2.38 2.38 0 0 1 1.94 1.07 1.84 1.84 0 0 1-.17 1.76c-1 1.86-2.36 2.45-5.56 2.45zM53.11 96.06c-1.85 0-2.9.74-4.48 2.13l-10.52 9.21h3.16l3.17-2.76h7.7l-.42 2.76h2.41l1.22-8.65a2.22 2.22 0 0 0-2.24-2.69M53 99l-.52 3.6h-5.67L51 99c.54-.47.88-.77 1.35-.77s.71.3.63.77" transform="translate(-9.4 -9.8)"/><path class="cls-1" d="M30.81 86.43 23.54 97.6h2.81l7.28-11.17h-2.82z"/><path class="cls-1" d="M184.1 96.06c-1.85 0-2.9.74-4.48 2.13l-10.52 9.21h3.16l3.17-2.76h7.7l-.42 2.76h2.41l1.22-8.65a2.22 2.22 0 0 0-2.24-2.69M184 99l-.52 3.6h-5.68L182 99c.54-.47.88-.77 1.36-.77s.7.3.62.77m24.6-1.55c-.55-.89-1.74-1.23-3.61-1.23h-6.65l-1.42 2.21h8.54c.18 0 .75 0 .83.41a.75.75 0 0 1-.35.83c-.69.45-8.18 2.25-10.18 2.86a6.5 6.5 0 0 0-3.51 3c-.89 1.36-1.18 1.82-1.18 1.82h12.49l1.47-2.23h-9.38c.22-.28.48-.46 1.37-.73 1.86-.55 5.87-1.6 6.36-1.72 4.4-1.15 4.81-2.12 5.13-2.6a2.5 2.5 0 0 0 .09-2.67m-50.4 5.38 4.22-6.56h-2.81l-4.26 6.56c-2.05 3.1-.24 4.62 3.17 4.62h8.07l1.42-2.22h-8.66c-2.28 0-2.35-.58-1.15-2.4m-4.68-6.55-3.78 5.77c-1.75 2.7-3.44 3.31-6.69 3.31s-4-.61-2.24-3.31l3.79-5.81h-2.72l-3.78 5.81c-2.64 4.06-.68 5.59 4.2 5.59 5.78 0 7.63-1.53 10.27-5.59l3.78-5.81zm-18.2 0a3.73 3.73 0 0 0-2.11.86l-7.4 5.7-1.1-5.7c-.06-.42-.14-.86-1-.86h-2.07l-7.27 11.17h3l5.37-8.25 1.15 5.94h2.2l7.8-6-5.39 8.27h3l7.27-11.17zM97.21 98c-1.18-1.81-3.87-2-6.35-2-3.62 0-6 .93-8 2.81a8.34 8.34 0 0 0-2.47 4.19 3.31 3.31 0 0 0 .65 2.64c1.06 1.38 3.26 2.08 6.32 2.08 5 0 8.37-1.82 9.94-5.54a4.4 4.4 0 0 0-.09-4.18m-1.95 2.87c-.05.14-.1.27-.15.38-.82 2-2.45 4.21-7.84 4.21a12.68 12.68 0 0 1-2-.15h-.17l-.46-.1c-2-.52-1.72-2-1.57-2.44a6.51 6.51 0 0 1 1.39-2.27c1.09-1.08 2.71-2.27 6.53-2.27a18 18 0 0 1 2 .09s3 .27 2.36 2.58m17.1 1.92c1.39-.46 2.81-.8 3.67-2.8 1.57-3.63-2.63-3.81-2.63-3.81h-8.94l-7.23 11.18h3l2.47-3.85h6.34c1.86 0 .86 1.51.86 1.51l-1.54 2.33h2.92l1.38-2.11c1.06-1.64-.27-2.45-.27-2.45m-1.44-1.5h-6.83l2-2.94h6.31s1.71 0 1.27 1.39c-.51 1.58-2.73 1.55-2.73 1.55m-38.73-2.81h7.75l1.5-2.28h-8.66c-3.88 0-5.62.53-8.1 4.35l-4.39 6.82h2.93l2.51-3.86h10.54l1.36-2.07H67.22l.2-.31c1.49-2.3 2.33-2.65 4.91-2.65m-43.92 0h7.75l1.5-2.28H29c-3.88 0-5.62.53-8.1 4.35l-4.39 6.82h2.93l2.5-3.86h10.55l1.36-2.07H23.3l.2-.31c1.48-2.3 2.33-2.65 4.91-2.65m176.36 16.31h-.71l1.4-2.64h-1.55l.31-.59H208l-.31.59h-1.47zm7 0H211l1.29-2.43-2.29 1.71h-.36l-.52-1.56-1.22 2.28h-.73l1.71-3.23h.72l.53 1.72 2.38-1.72h1z" transform="translate(-9.4 -9.8)"/></svg>